<svg width="20.000000" height="20.000000" viewBox="0 0 20 20" fill="none" xmlns="http://www.w3.org/2000/svg" xmlns:xlink="http://www.w3.org/1999/xlink">
	<desc>
			Created with Pixso.
	</desc>
	<defs>
		<clipPath id="clip1_1555">
			<rect id="Frame" width="20.000000" height="20.000000" fill="white" fill-opacity="0"/>
		</clipPath>
	</defs>
	<rect id="Frame" width="20.000000" height="20.000000" fill="#FFFFFF" fill-opacity="0"/>
	<g clip-path="url(#clip1_1555)">
		<path id="Vector" d="M17.0555 4.66406C17.8375 4.19531 18.4381 3.45312 18.7209 2.56836C17.9891 3.00244 17.1785 3.31787 16.3157 3.48779C15.6247 2.75146 14.6404 2.2915 13.551 2.2915C11.4591 2.2915 9.76318 3.9873 9.76318 6.0791C9.76318 6.37598 9.79674 6.66504 9.8613 6.94238C6.71335 6.78418 3.92242 5.27637 2.05428 2.98486C1.72826 3.54443 1.54147 4.19482 1.54147 4.88916C1.54147 6.20312 2.21021 7.3623 3.22653 8.0415C2.6056 8.02197 2.0216 7.85156 1.51088 7.56787C1.5106 7.5835 1.5106 7.59961 1.5106 7.61572C1.5106 9.45068 2.81622 10.9814 4.54896 11.3296C4.23109 11.416 3.89649 11.4624 3.55101 11.4624C3.30696 11.4624 3.06966 11.4385 2.83844 11.3945C3.3204 12.8994 4.7192 13.9941 6.37664 14.0249C5.08035 15.0405 3.44715 15.6465 1.67261 15.6465C1.36691 15.6465 1.06538 15.6284 0.769066 15.5933C2.44528 16.668 4.43625 17.2949 6.57525 17.2949C13.5421 17.2949 17.3519 11.5234 17.3519 6.51807C17.3519 6.354 17.3482 6.19092 17.3409 6.02832C18.0809 5.49414 18.7231 4.82715 19.2309 4.06738C18.5517 4.36865 17.8217 4.57227 17.0555 4.66406Z" fill="#000000" fill-opacity="1.000000" fill-rule="nonzero"/>
	</g>
</svg>
