<svg width="39.994751" height="40.000000" viewBox="0 0 39.9948 40" fill="none" xmlns="http://www.w3.org/2000/svg" xmlns:xlink="http://www.w3.org/1999/xlink">
	<desc>
			Created with Pixso.
	</desc>
	<defs/>
	<path id="Vector" d="M33.9948 0L22.2547 0C20.6547 0 19.1347 0.640137 18.0147 1.75977L1.7547 18.02C0.631104 19.145 0 20.6699 0 22.2598C0 23.8501 0.631104 25.375 1.7547 26.5L13.4948 38.2402C14.0508 38.7979 14.7116 39.2407 15.4392 39.543C16.1668 39.8447 16.9469 40 17.7347 40C19.2547 40 20.8147 39.4199 21.9747 38.2402L38.2347 22C39.3575 20.874 39.9901 19.3501 39.9948 17.7598L39.9948 6C39.9948 2.68018 37.3147 0 33.9948 0ZM28.6607 14.667C29.0985 14.667 29.532 14.5806 29.9364 14.4131C30.3408 14.2456 30.7083 14 31.0179 13.6904C31.3274 13.3809 31.5729 13.0137 31.7405 12.6094C31.908 12.2046 31.9942 11.7715 31.9942 11.3335C31.9942 10.8955 31.908 10.4624 31.7405 10.0576C31.5729 9.65332 31.3274 9.28613 31.0179 8.97656C30.7083 8.66699 30.3408 8.42139 29.9364 8.25391C29.532 8.08643 29.0985 8 28.6607 8C27.7766 8 26.9287 8.35107 26.3036 8.97656C25.6784 9.60156 25.3272 10.4492 25.3272 11.3335C25.3272 12.2178 25.6784 13.0654 26.3036 13.6904C26.9287 14.3159 27.7766 14.667 28.6607 14.667Z" fill="#8AB4F8" fill-opacity="1.000000" fill-rule="evenodd"/>
</svg>
